<svg height="512" viewBox="0 0 64 64" width="512" xmlns="http://www.w3.org/2000/svg" xmlns:xlink="http://www.w3.org/1999/xlink"><linearGradient id="linear-gradient" gradientUnits="userSpaceOnUse" x1="25.72" x2="37.96" y1="31.8" y2="31.8"><stop offset="0" stop-color="#5bb4f6"/><stop offset=".61" stop-color="#2191e5"/><stop offset="1" stop-color="#007edb"/></linearGradient><linearGradient id="linear-gradient-2" x1="3.4" x2="60.6" xlink:href="#linear-gradient" y1="32" y2="32"/><g id="Layer_28" data-name="Layer 28"><path d="m31.84 25.68a6.12 6.12 0 1 0 6.16 6.12 6.13 6.13 0 0 0 -6.16-6.12zm3.05 6.72a.6.6 0 0 1 -.6-.6 2.45 2.45 0 0 0 -2.45-2.45.6.6 0 0 1 -.6-.6.6.6 0 0 1 .6-.6 3.66 3.66 0 0 1 3.65 3.65.6.6 0 0 1 -.6.6z" fill="url(#linear-gradient)"/><path d="m50 3.4h-36a10.62 10.62 0 0 0 -10.6 10.6v36a10.62 10.62 0 0 0 10.6 10.6h36a10.62 10.62 0 0 0 10.6-10.6v-36a10.62 10.62 0 0 0 -10.6-10.6zm-33.87 11.34h31.42v4h-31.42zm4 5.23h23.42a13.16 13.16 0 0 1 -5.28 17.61 8.65 8.65 0 1 0 -12.86 0 13.21 13.21 0 0 1 -6.78-11.53 13.06 13.06 0 0 1 1.51-6.05zm4.26 11.83a7.46 7.46 0 1 1 7.45 7.46 7.46 7.46 0 0 1 -7.45-7.46zm20.43 10.74a.59.59 0 0 1 .6-.59.6.6 0 0 1 .6.6 5.12 5.12 0 0 1 -5.12 5.09.61.61 0 0 1 -.61-.6.59.59 0 0 1 .59-.6 3.93 3.93 0 0 0 3.94-3.9zm-3.94 6.78a6.81 6.81 0 0 0 6.82-6.77.6.6 0 0 1 .6-.6.6.6 0 0 1 .6.6 8 8 0 0 1 -8 8 .61.61 0 0 1 -.61-.6.59.59 0 0 1 .59-.63zm-2.22-6.79a2.24 2.24 0 1 1 2.24 2.23 2.24 2.24 0 0 1 -2.24-2.23zm2.24 10.87a.61.61 0 0 1 -.61-.6.59.59 0 0 1 .59-.6 9.69 9.69 0 0 0 9.7-9.65.6.6 0 0 1 .6-.6.6.6 0 0 1 .6.6 10.89 10.89 0 0 1 -10.88 10.85z" fill="url(#linear-gradient-2)"/></g></svg>