<svg id="Layer_3" enable-background="new 0 0 64 64" height="512" viewBox="0 0 64 64" width="512" xmlns="http://www.w3.org/2000/svg"><path d="m62 1h-60c-.553 0-1 .448-1 1v6c0 .552.447 1 1 1h3v3c0 .552.447 1 1 1h1v3c0 7.168 5.832 13 13 13 6.134 0 11.277-4.276 12.637-10h15.363c2.757 0 5-2.243 5-5v-1h7c.553 0 1-.448 1-1v-3h1c.553 0 1-.448 1-1v-6c0-.552-.447-1-1-1zm-29 8v2h-26v-2zm-13 18c-6.065 0-11-4.935-11-11v-3h22v3c0 6.065-4.935 11-11 11zm31-13c0 1.654-1.346 3-3 3h-15.051c.026-.331.051-.662.051-1v-3h1c.553 0 1-.448 1-1v-3h12v3c0 .552.447 1 1 1h3zm8-3h-10v-2h10zm2-4h-58v-4h58z"/><path d="m20 15c-2.757 0-5 2.243-5 5s2.243 5 5 5 5-2.243 5-5-2.243-5-5-5zm0 8c-1.654 0-3-1.346-3-3s1.346-3 3-3 3 1.346 3 3-1.346 3-3 3z"/><path d="m19 19h2v2h-2z"/><path d="m55 23h-16c-2.206 0-4 1.794-4 4v32c0 2.206 1.794 4 4 4h16c2.206 0 4-1.794 4-4v-32c0-2.206-1.794-4-4-4zm-2.414 2-2 2h-7.172l-2-2zm-1.586 36h-8v-1c0-.552.448-1 1-1h6c.552 0 1 .448 1 1zm6-2c0 1.103-.897 2-2 2h-2v-1c0-1.654-1.346-3-3-3h-6c-1.654 0-3 1.346-3 3v1h-2c-1.103 0-2-.897-2-2v-32c0-.974.701-1.785 1.624-1.962l3.669 3.669c.187.188.441.293.707.293h8c.266 0 .52-.105.707-.293l3.669-3.669c.923.177 1.624.988 1.624 1.962z"/><path d="m54 36c-2.312 0-4.486-.9-6.121-2.535l-.172-.172c-.391-.391-1.023-.391-1.414 0l-.172.172c-1.635 1.635-3.809 2.535-6.121 2.535-.553 0-1 .447-1 1 0 5.426 2.113 10.527 5.95 14.364l1.343 1.343c.195.195.451.293.707.293s.512-.098.707-.293l1.343-1.343c3.837-3.837 5.95-8.938 5.95-14.364 0-.553-.447-1-1-1zm-6.364 13.95-.636.636-.636-.636c-3.233-3.234-5.109-7.464-5.34-11.998 2.218-.211 4.292-1.102 5.976-2.572 1.684 1.471 3.758 2.361 5.976 2.572-.231 4.534-2.107 8.764-5.34 11.998z"/><path d="m44 43c0 1.654 1.346 3 3 3s3-1.346 3-3-1.346-3-3-3-3 1.346-3 3zm4 0c0 .552-.448 1-1 1s-1-.448-1-1 .448-1 1-1 1 .448 1 1z"/><path d="m22.884 33.712-1.404-1.424c-.789.777-2.17.777-2.959 0l-1.404 1.424c.771.76 1.795 1.179 2.884 1.179s2.112-.419 2.883-1.179z"/><path d="m14.207 36.579c1.548 1.526 3.605 2.366 5.793 2.366s4.245-.84 5.793-2.366l-1.404-1.424c-1.171 1.154-2.729 1.79-4.389 1.79s-3.218-.636-4.389-1.79z"/><path d="m20 41c-2.757 0-5.349-1.058-7.298-2.978l-1.404 1.424c2.326 2.292 5.416 3.554 8.702 3.554s6.376-1.262 8.702-3.554l-1.404-1.424c-1.949 1.92-4.541 2.978-7.298 2.978z"/></svg>