<svg id="glipy_copy" height="512" viewBox="0 0 64 64" width="512" xmlns="http://www.w3.org/2000/svg" xmlns:xlink="http://www.w3.org/1999/xlink" data-name="glipy copy"><linearGradient id="linear-gradient" gradientUnits="userSpaceOnUse" x1="4" x2="60" y1="32" y2="32"><stop offset="0" stop-color="#00c0ff"/><stop offset="1" stop-color="#5558ff"/></linearGradient><path d="m57 7.94h-50a3.00234 3.00234 0 0 0 -3 3v5a3.00883 3.00883 0 0 0 3 3h50a3.00883 3.00883 0 0 0 3-3v-5a3.00234 3.00234 0 0 0 -3-3zm-29.5 6.5h-18a1 1 0 0 1 0-2h18a1.00011 1.00011 0 0 1 0 2zm13.5 0h-4.5a1.00011 1.00011 0 0 1 .00006-2h4.49994a1.00011 1.00011 0 0 1 0 2zm4.52 0a1 1 0 0 1 .00006-2 1 1 0 0 1 -.00006 2zm4.5 0a1 1 0 0 1 .00006-2 1 1 0 0 1 -.00006 2zm4.5 0a1 1 0 0 1 .00006-2 1 1 0 0 1 -.00006 2zm-46.02 6.5h47v11.62a23.4593 23.4593 0 0 1 -6.99 16.71v-10.19a16.51 16.51 0 1 0 -33.02 0v10.19a23.4593 23.4593 0 0 1 -6.99-16.71zm23.5 3.62a14.52965 14.52965 0 0 0 -14.51 14.52v11.94a23.4068 23.4068 0 0 0 29.02 0v-11.94a14.52965 14.52965 0 0 0 -14.51-14.52zm0 25.88a11.13676 11.13676 0 0 1 -11.12-11.13c.6131-14.75177 21.62916-14.7475 22.24.00006a11.13674 11.13674 0 0 1 -11.12 11.12994zm0-20.25a9.12873 9.12873 0 0 0 -9.12 9.12c.49463 12.1084 17.7472 12.10492 18.24-.00012a9.1287 9.1287 0 0 0 -9.12-9.11988zm-6.26 9.11988a6.26935 6.26935 0 0 1 6.26-6.25988 1.0522 1.0522 0 0 1 1.05 1.18 3.5095 3.5095 0 0 0 3.45 4.08c.48755.00006 1.00458-.20765 1.41.17a1.02965 1.02965 0 0 1 .35.83c-.29235 8.29712-12.22783 8.29736-12.52-.00012zm10.41.99012a4.26265 4.26265 0 1 1 -5.14-5.13 5.51 5.51 0 0 0 5.14 5.13z" fill="url(#linear-gradient)"/></svg>