<svg height="512" viewBox="0 0 512 512" width="512" xmlns="http://www.w3.org/2000/svg"><g><path d="m496 40h-304a8 8 0 0 0 -8 8v104h-168a8 8 0 0 0 -8 8v256a8 8 0 0 0 8 8h64v40a8 8 0 0 0 13.66 5.66l45.65-45.66h180.69a8 8 0 0 0 8-8v-104h44.69l45.65 45.66a8 8 0 0 0 13.66-5.66v-40h64a8 8 0 0 0 8-8v-256a8 8 0 0 0 -8-8zm-184 368h-176a8.008 8.008 0 0 0 -5.66 2.34l-34.34 34.35v-28.69a8 8 0 0 0 -8-8h-64v-240h160v136a8 8 0 0 0 8 8h120zm176-112h-64a8 8 0 0 0 -8 8v28.69l-34.34-34.35a8.008 8.008 0 0 0 -5.66-2.34h-176v-240h288z"/><path d="m64 296h96a8 8 0 0 0 0-16h-96a8 8 0 0 0 0 16z"/><path d="m136 264h24a8 8 0 0 0 0-16h-24a8 8 0 0 0 0 16z"/><path d="m136 232h24a8 8 0 0 0 0-16h-24a8 8 0 0 0 0 16z"/><path d="m64 328h96a8 8 0 0 0 0-16h-96a8 8 0 0 0 0 16z"/><path d="m56 352a8 8 0 0 0 8 8h208a8 8 0 0 0 0-16h-208a8 8 0 0 0 -8 8z"/><path d="m64 264h40a8 8 0 0 0 8-8v-32a8 8 0 0 0 -8-8h-40a8 8 0 0 0 -8 8v32a8 8 0 0 0 8 8zm8-32h24v16h-24z"/><path d="m271.383 205.554a8 8 0 0 0 2.983 5.556l64 51a8 8 0 0 0 9.972 0l64-51a8 8 0 0 0 2.983-5.556l8-91a8 8 0 0 0 -4.72-8.011l-72-32a7.994 7.994 0 0 0 -6.5 0l-72 32a8 8 0 0 0 -4.72 8.011zm71.969-114.946 63.53 28.236-7.2 81.891-56.331 44.889-56.331-44.889-7.2-81.891z"/><path d="m314.915 182.51 24 16a8 8 0 0 0 11.093-2.219l32-48a8 8 0 1 0 -13.312-8.875l-27.563 41.344-17.343-11.56a8 8 0 1 0 -8.875 13.313z"/></g></svg>