<svg id="Layer_1" height="512" viewBox="0 0 512 512" width="512" xmlns="http://www.w3.org/2000/svg" xmlns:xlink="http://www.w3.org/1999/xlink" data-name="Layer 1"><linearGradient id="GradientFill_1" gradientUnits="userSpaceOnUse" x1="256" x2="256" y1="506.071" y2="5.929"><stop offset="0" stop-color="#6c54a3"/><stop offset="1" stop-color="#00b1d2"/></linearGradient><path d="m385.521 336.548a25.539 25.539 0 1 0 25.582 25.5 25.572 25.572 0 0 0 -25.582-25.5zm0 68.152a42.613 42.613 0 1 1 42.649-42.649 42.664 42.664 0 0 1 -42.649 42.649zm-68.121-49.936 10.065-1.928a8.675 8.675 0 0 0 6.608-5.93 53.139 53.139 0 0 1 4.308-10.43 8.569 8.569 0 0 0 -.45-8.93l-5.765-8.5 10.38-10.358 8.43 5.786a8.493 8.493 0 0 0 8.894.5 51.411 51.411 0 0 1 10.444-4.357 8.624 8.624 0 0 0 5.979-6.644l1.886-10h14.674l1.879 10a8.639 8.639 0 0 0 5.972 6.644 51.2 51.2 0 0 1 10.458 4.357 8.523 8.523 0 0 0 8.909-.5l8.422-5.786 10.366 10.358-5.765 8.5a8.615 8.615 0 0 0 -.45 8.93 48.576 48.576 0 0 1 4.308 10.43 8.683 8.683 0 0 0 6.622 5.93l10.044 1.928v14.645l-10.094 1.929a8.719 8.719 0 0 0 -6.615 5.929 51.125 51.125 0 0 1 -4.308 10.359 8.6 8.6 0 0 0 .443 8.93l5.815 8.5-10.366 10.43-8.536-5.858a8.487 8.487 0 0 0 -8.887-.5 50.477 50.477 0 0 1 -10.337 4.286 8.577 8.577 0 0 0 -5.959 6.644l-1.921 10.073h-14.676l-1.907-10.073a8.64 8.64 0 0 0 -5.972-6.644 50.27 50.27 0 0 1 -10.337-4.286 8.5 8.5 0 0 0 -8.9.5l-8.522 5.858-10.38-10.43 5.808-8.5a8.566 8.566 0 0 0 .45-8.93 51.125 51.125 0 0 1 -4.308-10.359 8.711 8.711 0 0 0 -6.6-5.929l-10.109-1.929zm-8.13 30.5a11.05 11.05 0 0 1 -8.937-10.787v-24.79a11.048 11.048 0 0 1 8.937-10.787l10.13-1.929c.514-1.285 1.043-2.571 1.636-3.857l-5.822-8.573a10.954 10.954 0 0 1 1.3-13.93l17.538-17.5a10.967 10.967 0 0 1 13.948-1.355l8.465 5.786c1.308-.571 2.643-1.143 3.979-1.643l1.9-10.072a10.99 10.99 0 0 1 10.772-8.93h24.8a11.005 11.005 0 0 1 10.78 8.93l1.893 10.072c1.35.5 2.672 1.072 3.979 1.643l8.465-5.786a10.975 10.975 0 0 1 13.952 1.357l17.531 17.5a10.954 10.954 0 0 1 1.3 13.93l-5.816 8.576c.578 1.286 1.128 2.572 1.628 3.857l10.13 1.929a11.042 11.042 0 0 1 8.93 10.787v24.79a11.043 11.043 0 0 1 -8.93 10.787l-10.185 1.931c-.507 1.285-1.043 2.571-1.622 3.786l5.858 8.644a10.954 10.954 0 0 1 -1.3 13.93l-17.531 17.5a10.88 10.88 0 0 1 -13.952 1.286l-8.586-5.858c-1.258.571-2.537 1.071-3.822 1.642l-1.929 10.216a10.942 10.942 0 0 1 -10.78 8.859h-24.8a10.927 10.927 0 0 1 -10.772-8.859l-1.922-10.216c-1.286-.571-2.565-1.071-3.829-1.642l-8.586 5.859a10.87 10.87 0 0 1 -13.945-1.286l-17.538-17.5a10.946 10.946 0 0 1 -1.3-13.93l5.858-8.573c-.579-1.286-1.122-2.572-1.608-3.857l-10.194-1.929zm-309.08-95.437v94.584h50.9v-59.293a8.534 8.534 0 1 1 17.067 0v59.293h193.19c-11.787-34.719-18.245-75.581-19.574-123.3a8.466 8.466 0 0 1 3.086-6.858 8.818 8.818 0 0 1 7.251-1.786 122.838 122.838 0 0 0 81.1-10.5 60.742 60.742 0 0 0 -24.11-12.362l-99.52-25.575 7.172 111.443a8.551 8.551 0 0 1 -1.186 4.93l-30.315 51.007a8.486 8.486 0 0 1 -14.666 0l-30.312-51.01a8.441 8.441 0 0 1 -1.171-4.93l7.158-111.44-99.521 25.575c-27.132 6.929-45.391 30.575-46.549 60.222zm110.31-210.457c-.279-22.575 6.515-41.434 19.674-54.651 11.937-11.93 29.033-18.788 46.992-18.788h.834c18.253-.143 35.577 6.715 47.671 18.788 13.145 13.217 19.946 32.081 19.667 54.651-.586 47.221-18.638 101.156-67.416 112.586-48.786-11.43-66.838-65.365-67.424-112.586zm89.041 234.6-21.617 36.434-21.624-36.431 7.33-114.087a80.947 80.947 0 0 1 13.616-1.286c.221 0 .45.072.679.072s.45-.072.678-.072a80.934 80.934 0 0 1 13.609 1.286l7.33 114.087zm185.982-91.941a141.563 141.563 0 0 0 107.772 50.221 134.61 134.61 0 0 0 18.517-1.214c-6.58 144.091-63.973 198.884-126.289 235.032-62.346-36.145-119.723-90.938-126.312-235.029 47.228 6.429 94.9-12.073 126.31-49.007z" fill="url(#GradientFill_1)" fill-rule="evenodd"/></svg>