<?xml version="1.0" encoding="UTF-8"?>
<!-- Generator: Adobe Illustrator 26.0.2, SVG Export Plug-In . SVG Version: 6.00 Build 0)  -->
<svg xmlns="http://www.w3.org/2000/svg" xmlns:xlink="http://www.w3.org/1999/xlink" version="1.1" id="Capa_1" x="0px" y="0px" viewBox="0 0 512 512" style="enable-background:new 0 0 512 512;" xml:space="preserve" width="512" height="512">
<g>
	<g>
		<path d="M414.897,61.793c0-9.751,7.904-17.655,17.655-17.655c9.751,0,17.655,7.904,17.655,17.655v17.655h35.31V61.793    c0-29.252-23.713-52.966-52.966-52.966c-29.252,0-52.966,23.713-52.966,52.966v59.895c10.537-6.884,22.485-11.778,35.31-14.144    V61.793z"/>
		<path d="M88.276,158.897h158.897V35.31H88.276V158.897z M129.828,108.516l11.413,11.414l64.378-64.38l12.483,12.484    l-76.862,76.862l-23.897-23.896L129.828,108.516z"/>
		<path d="M194.207,467.862V308.966c0-14.602,11.88-26.483,26.483-26.483h61.793V8.828c0-4.867-3.96-8.828-8.828-8.828H61.793    c-4.867,0-8.828,3.96-8.828,8.828v220.69h23.627c10.136-21.352,31.827-35.31,55.821-35.31c34.072,0,61.793,27.72,61.793,61.793    s-27.721,61.793-61.793,61.793c-23.994,0-45.685-13.959-55.821-35.31H52.966v220.69c0,4.867,3.96,8.828,8.828,8.828h211.862    c4.867,0,8.828-3.96,8.828-8.828v-8.828H220.69C206.087,494.345,194.207,482.464,194.207,467.862z M70.621,176.552V17.655h194.207    v158.897H70.621z"/>
		<path d="M211.862,308.966v158.897c0,4.867,3.96,8.828,8.828,8.828h26.483V300.138H220.69    C215.822,300.138,211.862,304.098,211.862,308.966z"/>
		<path d="M432.552,282.483c43.808,0,79.448-35.64,79.448-79.448s-35.64-79.448-79.448-79.448s-79.448,35.64-79.448,79.448    S388.744,282.483,432.552,282.483z M432.552,247.172c-4.875,0-8.828-3.953-8.828-8.828c0-4.875,3.953-8.828,8.828-8.828    s8.828,3.953,8.828,8.828C441.379,243.22,437.427,247.172,432.552,247.172z M451.278,219.619    c-5.002-5.002-11.652-7.757-18.727-7.757s-13.725,2.755-18.727,7.757l-12.483-12.484c8.337-8.337,19.42-12.928,31.21-12.928    s22.873,4.591,31.21,12.928L451.278,219.619z M488.73,182.166l-12.483,12.484c-24.094-24.093-63.295-24.093-87.389,0    l-12.483-12.484C407.35,151.19,457.753,151.19,488.73,182.166z"/>
		<path d="M141.241,256c0-4.867-3.96-8.828-8.828-8.828H8.828C3.96,247.172,0,251.133,0,256s3.96,8.828,8.828,8.828h123.586    C137.281,264.828,141.241,260.867,141.241,256z"/>
		<path d="M132.414,282.483H97.114c8.194,10.898,21.19,17.655,35.299,17.655c24.338,0,44.138-19.8,44.138-44.138    s-19.8-44.138-44.138-44.138c-14.11,0-27.105,6.758-35.299,17.655h35.299c14.603,0,26.483,11.881,26.483,26.483    S147.017,282.483,132.414,282.483z"/>
		<path d="M264.828,476.69h176.552V300.138H264.828V476.69z M353.103,314.994l85.656,73.42h-32.691v70.621H300.138v-70.621h-32.691    L353.103,314.994z"/>
		<path d="M503.172,300.138h-44.138V476.69h44.138c4.867,0,8.828-3.96,8.828-8.828V308.966    C512,304.098,508.04,300.138,503.172,300.138z M494.345,406.069H476.69v-35.31h17.655V406.069z"/>
		<polygon points="353.103,338.248 315.174,370.759 391.033,370.759   "/>
		<rect x="317.793" y="388.414" width="70.621" height="52.966"/>
	</g>
</g>















</svg>
