<svg id="Capa_1" enable-background="new 0 0 512 512" height="512" viewBox="0 0 512 512" width="512" xmlns="http://www.w3.org/2000/svg"><g><path d="m438.512 381.48c-2.931-2.929-7.68-2.929-10.611 0-2.93 2.931-2.93 7.68 0 10.611l24.65 24.65c2.133 2.232 3.4 6.832 0 10.609l-23.529 23.53c-2.927 2.925-7.687 2.925-10.61 0l-70.391-70.39c6.527-4.72 12.702-9.961 18.44-15.699 5.807-5.807 11.041-11.974 15.717-18.422l21.766 21.766c1.465 1.464 3.386 2.197 5.305 2.197 1.92 0 3.84-.733 5.305-2.197 2.93-2.931 2.93-7.68 0-10.611l-24.012-24.012c33.98-58.497 25.959-134.881-24.082-184.923-59.607-59.608-156.594-59.606-216.201 0-28.301 28.302-44.198 65.923-44.761 105.935-.563 39.929 14.183 77.903 41.52 106.926 2.843 3.015 7.589 3.155 10.606.317 3.016-2.842 3.158-7.589.317-10.606-51.415-54.586-50.129-138.907 2.929-191.962 53.757-53.758 141.225-53.758 194.979 0 53.756 53.756 53.756 141.224 0 194.979-45.254 45.255-117.267 53.263-171.23 19.042-3.498-2.218-8.133-1.182-10.354 2.318-2.218 3.499-1.181 8.134 2.318 10.354 24.404 15.475 52.994 23.664 81.908 23.664 5.283 0 10.578-.274 15.859-.825 21.509-2.25 42.255-9.109 60.808-19.883l72.641 72.64c4.388 4.387 10.151 6.581 15.914 6.58 5.763 0 11.528-2.194 15.916-6.58l23.53-23.53c8.775-8.776 8.775-23.054 0-31.83z"/><path d="m308.72 213.759c1.668-3.793-.054-8.219-3.847-9.888-15.71-6.909-31.318-10.413-46.39-10.413-43.734 0-81.118 29.289-99.509 46.749-4.692 4.454-7.382 10.722-7.382 17.197s2.69 12.742 7.382 17.197c18.391 17.459 55.775 46.749 99.509 46.749 43.735 0 81.118-29.289 99.51-46.749 4.692-4.454 7.382-10.722 7.382-17.197s-2.69-12.742-7.383-17.197c-6.583-6.25-13.54-12.076-20.677-17.319-3.337-2.452-8.034-1.734-10.488 1.606-2.453 3.339-1.734 8.035 1.606 10.488 6.631 4.871 13.101 10.29 19.229 16.107 1.748 1.658 2.709 3.901 2.709 6.314s-.961 4.657-2.709 6.314c-16.769 15.92-50.654 42.626-89.179 42.626-38.523 0-72.409-26.706-89.178-42.626-1.747-1.658-2.709-3.901-2.709-6.314s.962-4.657 2.709-6.314c16.769-15.92 50.654-42.626 89.178-42.626 12.98 0 26.555 3.076 40.349 9.143 3.793 1.67 8.221-.053 9.888-3.847z"/><path d="m221.667 257.403c0 20.3 16.516 36.816 36.816 36.816 20.301 0 36.817-16.516 36.817-36.816 0-20.301-16.516-36.817-36.817-36.817-20.3 0-36.816 16.516-36.816 36.817zm58.629 0c0 12.027-9.785 21.811-21.812 21.811s-21.811-9.784-21.811-21.811 9.784-21.812 21.811-21.812c12.026 0 21.812 9.785 21.812 21.812z"/><path d="m388.236 122.391c1.92 0 3.84-.733 5.305-2.197l32.736-32.737 14.134 14.134c4.361 4.358 11.456 4.358 15.822-.001l39.7-39.7v10.072c0 4.144 3.358 7.502 7.502 7.502s7.502-3.358 7.502-7.502v-27.796c0-4.144-3.358-7.502-7.502-7.502h-27.796c-4.144 0-7.502 3.358-7.502 7.502s3.358 7.502 7.502 7.502h9.293l-36.611 36.613-14.134-14.134c-4.363-4.361-11.46-4.36-15.822.001l-35.435 35.435c-2.93 2.931-2.93 7.68 0 10.611 1.466 1.464 3.386 2.197 5.306 2.197z"/><path d="m39.574 101.905c21.302 0 38.634-17.331 38.634-38.634s-17.332-38.634-38.634-38.634-38.634 17.331-38.634 38.634 17.331 38.634 38.634 38.634zm0-62.263c13.029 0 23.629 10.6 23.629 23.629s-10.6 23.629-23.629 23.629-23.63-10.6-23.63-23.629 10.6-23.629 23.63-23.629z"/><path d="m40.721 127.624c-21.302 0-38.634 17.331-38.634 38.634s17.331 38.634 38.634 38.634 38.634-17.331 38.634-38.634-17.331-38.634-38.634-38.634zm0 62.263c-13.029 0-23.629-10.6-23.629-23.629s10.6-23.629 23.629-23.629 23.629 10.6 23.629 23.629c.001 13.029-10.599 23.629-23.629 23.629z"/><path d="m40.721 229.406c-21.302 0-38.634 17.331-38.634 38.634s17.331 38.634 38.634 38.634 38.634-17.331 38.634-38.634-17.331-38.634-38.634-38.634zm0 62.263c-13.029 0-23.629-10.6-23.629-23.629s10.6-23.629 23.629-23.629 23.629 10.6 23.629 23.629c.001 13.029-10.599 23.629-23.629 23.629z"/><path d="m108.689 51.615h66.395c4.144 0 7.502-3.358 7.502-7.502s-3.358-7.502-7.502-7.502h-66.395c-4.144 0-7.502 3.358-7.502 7.502s3.359 7.502 7.502 7.502z"/><path d="m108.689 83.586h33.198c4.144 0 7.502-3.358 7.502-7.502s-3.358-7.502-7.502-7.502h-33.198c-4.144 0-7.502 3.358-7.502 7.502 0 4.143 3.359 7.502 7.502 7.502z"/><path d="m504.498 142.775h-36.636c-4.144 0-7.502 3.358-7.502 7.502s3.358 7.502 7.502 7.502h36.636c4.144 0 7.502-3.358 7.502-7.502s-3.358-7.502-7.502-7.502z"/><circle cx="440.041" cy="150.472" r="8.333"/><path d="m504.498 173.356h-36.636c-4.144 0-7.502 3.358-7.502 7.502s3.358 7.502 7.502 7.502h36.636c4.144 0 7.502-3.358 7.502-7.502s-3.358-7.502-7.502-7.502z"/><circle cx="440.041" cy="181.053" r="8.333"/><path d="m306.187 440.751h-36.636c-4.144 0-7.502 3.358-7.502 7.502s3.358 7.502 7.502 7.502h36.636c4.144 0 7.502-3.358 7.502-7.502 0-4.143-3.358-7.502-7.502-7.502z"/><path d="m241.73 440.115c-4.602 0-8.333 3.731-8.333 8.333s3.731 8.333 8.333 8.333 8.333-3.731 8.333-8.333-3.731-8.333-8.333-8.333z"/><path d="m306.187 471.333h-36.636c-4.144 0-7.502 3.358-7.502 7.502s3.358 7.502 7.502 7.502h36.636c4.144 0 7.502-3.358 7.502-7.502s-3.358-7.502-7.502-7.502z"/><circle cx="241.73" cy="479.03" r="8.333"/><path d="m504.498 204.001h-36.636c-4.144 0-7.502 3.358-7.502 7.502s3.358 7.502 7.502 7.502h36.636c4.144 0 7.502-3.358 7.502-7.502s-3.358-7.502-7.502-7.502z"/><path d="m504.498 234.583h-36.636c-4.144 0-7.502 3.358-7.502 7.502s3.358 7.502 7.502 7.502h36.636c4.144 0 7.502-3.358 7.502-7.502s-3.358-7.502-7.502-7.502z"/><circle cx="440.041" cy="242.28" r="8.333"/><path d="m504.498 265.165h-36.636c-4.144 0-7.502 3.358-7.502 7.502s3.358 7.502 7.502 7.502h36.636c4.144 0 7.502-3.358 7.502-7.502s-3.358-7.502-7.502-7.502z"/><path d="m504.498 295.746h-36.636c-4.144 0-7.502 3.358-7.502 7.502s3.358 7.502 7.502 7.502h36.636c4.144 0 7.502-3.358 7.502-7.502 0-4.143-3.358-7.502-7.502-7.502z"/><path d="m440.041 295.11c-4.602 0-8.333 3.731-8.333 8.333s3.731 8.333 8.333 8.333 8.333-3.731 8.333-8.333-3.731-8.333-8.333-8.333z"/><path d="m202.468 471.388h-28.071v-42.894c0-6.343-5.161-11.504-11.504-11.504h-27.21c-6.343 0-11.504 5.161-11.504 11.504v42.894h-10.697v-69.75c0-6.343-5.161-11.504-11.504-11.504h-27.21c-6.343 0-11.504 5.161-11.504 11.504v69.75h-9.238v-23.71c0-6.343-5.161-11.504-11.504-11.504h-27.21c-6.343 0-11.504 5.161-11.504 11.504v24.687c-2.272 1.288-3.808 3.725-3.808 6.525 0 4.144 3.358 7.502 7.502 7.502h194.966c4.144 0 7.502-3.358 7.502-7.502s-3.358-7.502-7.502-7.502zm-63.284-39.393h20.208v39.393h-20.208zm-60.914-26.856h20.208v66.249h-20.208zm-59.457 46.039h20.209v20.209h-20.209z"/></g></svg>