<svg id="Layer_1" enable-background="new 0 0 512 512" viewBox="0 0 512 512" xmlns="http://www.w3.org/2000/svg"><g clip-rule="evenodd" fill-rule="evenodd"><path d="m485 329.15v-261.18c0-10.57-8.58-19.16-19.15-19.16h-419.7c-10.53 0-19.15 8.59-19.15 19.16v261.18zm-133.7-217.75c4.49 90.35 6.74 135.71-92.21 195.49-.94.58-2 .87-3.1.87-1.06 0-2.12-.29-3.06-.87-98.95-59.78-96.71-105.13-92.21-195.49l.04-.89c.16-2.82 2.25-5.17 5.06-5.62 17.85-2.93 29.69-12.97 36.14-30.72.86-2.37 3.1-3.95 5.64-3.95h96.83c2.53 0 4.78 1.58 5.64 3.95 6.45 17.74 18.3 27.79 36.18 30.72 2.78.46 4.86 2.8 5.02 5.62z" fill="#2579bc"/><g fill="#1f476d"><path d="m332.63 216.65c10.17-27.07 8.94-58.24 6.86-100.88-18.34-4.33-31.49-15.59-39.16-33.56h-88.66c-7.68 17.96-20.83 29.23-39.16 33.56-2.08 42.64-3.31 73.81 6.86 100.88 10.54 28.14 33.57 51.61 76.61 78.07 43.08-26.46 66.12-49.94 76.65-78.07zm-76.65-80.1c27.2 0 52.4 13.98 69.06 38.37 1.39 2.04 1.39 4.74 0 6.78-16.66 24.38-41.86 38.37-69.06 38.37-27.16 0-52.31-13.98-69.02-38.37-1.39-2.04-1.39-4.74 0-6.78 16.71-24.38 41.86-38.37 69.02-38.37z"/><path d="m255.98 184.43c3.39 0 6.13-2.75 6.13-6.12s-2.74-6.12-6.13-6.12c-3.35 0-6.09 2.74-6.09 6.12 0 3.37 2.74 6.12 6.09 6.12z"/><path d="m274.11 178.31c0 9.99-8.13 18.12-18.13 18.12-9.96 0-18.09-8.13-18.09-18.12s8.13-18.12 18.09-18.12c10 0 18.13 8.13 18.13 18.12zm-18.13 26.84c14.82 0 26.87-12.04 26.87-26.84s-12.05-26.83-26.87-26.83c-14.78 0-26.83 12.04-26.83 26.83 0 14.8 12.05 26.84 26.83 26.84z"/><path d="m294.86 178.31c0 7.86-2.37 15.18-6.41 21.3 9.15-5.04 17.4-12.24 24.26-21.3-6.86-9.06-15.11-16.25-24.26-21.3 4.04 6.12 6.41 13.44 6.41 21.3z"/><path d="m217.14 178.31c0-7.86 2.37-15.18 6.41-21.3-9.15 5.05-17.4 12.24-24.26 21.3 6.86 9.07 15.11 16.26 24.26 21.3-4.04-6.12-6.41-13.44-6.41-21.3z"/><path d="m485 341.15h-458v26.41c0 10.57 8.62 19.16 19.15 19.16h419.7c10.58 0 19.15-8.6 19.15-19.16z"/><path d="m221.96 398.72h68.08v29.15h-68.08z"/><path d="m323.61 439.87h-135.22c-3.39 0-6.13 1.16-8.49 3.56l-19.4 19.76h191l-19.4-19.76c-2.37-2.4-5.1-3.56-8.49-3.56z"/></g></g></svg>