<svg id="Layer_1" viewBox="0 0 512 512" xmlns="http://www.w3.org/2000/svg" xmlns:xlink="http://www.w3.org/1999/xlink" data-name="Layer 1"><linearGradient id="GradientFill_1" gradientUnits="userSpaceOnUse" x1="379.651" x2="101.884" y1="50.747" y2="531.854" data-name="GradientFill 1"><stop offset="0" stop-color="#00bef1"/><stop offset=".42" stop-color="#3382c4"/><stop offset=".73" stop-color="#4168b1"/><stop offset="1" stop-color="#4168b1"/></linearGradient><path d="m49.031 497.224h213.051c-5.779-6.589-9.089-15.085-9.138-23.676h-206.993v-412.872h45.489v-23.676h-42.409c-14.716 0-26.757 12.041-26.757 26.757v406.71c0 14.716 12.041 26.757 26.757 26.757zm347.11-185.743 86.567 149.937c9.215 15.961-2.242 35.806-20.673 35.806h-173.133c-18.43 0-29.888-19.845-20.672-35.806l86.567-149.937c9.215-15.961 32.129-15.961 41.345 0zm-29.899 103.045c.489 5.231 1.351 9.112 2.5 11.67 2.344 5.15 10.068 5.246 12.676-.115 1.293-2.644 2.127-6.438 2.529-11.382l3.622-41.476c.758-8.197 1.303-19.215-1.868-25.725-1.61-3.334-4.829-5.001-9.658-5.001-8.532 0-13.251 6.102-13.251 14.802 0 3.42.258 9.083.747 16.93l2.702 40.298zm9.313 55.417c12.175 0 16.45-14.107 8.853-21.529-7.931-7.748-21.615-2.545-21.615 8.882 0 7.941 5.806 12.647 12.762 12.647zm-272.115-378.142v-54.801h63.656c0-17.55 14.226-31.776 31.776-31.776s31.776 14.227 31.776 31.776h63.655v54.801zm95.432-65.952c6.158 0 11.151 4.992 11.151 11.151s-4.992 11.151-11.151 11.151-11.151-4.992-11.151-11.151 4.992-11.151 11.151-11.151zm-140.922 46.827h33.49v31.125h214.863v-31.125h33.49v240.792l-81.955 141.95c-1.149 1.99-2.094 4.04-2.839 6.13h-197.049zm110.085 212.34c-3.314 0-6-2.686-6-6s2.686-6 6-6h127.542c3.314 0 6 2.686 6 6s-2.686 6-6 6zm-65.87-148.463c-3.314 0-6-2.686-6-6s2.686-6 6-6h193.413c3.314 0 6 2.686 6 6s-2.686 6-6 6h-193.412zm-4.758 49.067c-1.993-2.627-1.479-6.374 1.148-8.367s6.374-1.479 8.367 1.148l4.094 5.384 15.943-20.963c1.993-2.627 5.74-3.142 8.367-1.148 2.628 1.993 3.142 5.74 1.148 8.367l-20.635 27.132c-2.355 3.156-7.133 3.307-9.581.086l-8.852-11.639zm70.628.421c-3.314 0-6-2.686-6-6s2.686-6 6-6h127.542c3.314 0 6 2.686 6 6s-2.686 6-6 6zm-70.628 49.067c-1.993-2.627-1.479-6.374 1.148-8.367s6.374-1.479 8.367 1.148l4.094 5.384 15.943-20.963c1.993-2.627 5.74-3.142 8.367-1.148 2.628 1.993 3.142 5.74 1.148 8.367l-20.635 27.132c-2.355 3.156-7.133 3.308-9.581.086l-8.852-11.639zm70.628.421c-3.314 0-6-2.686-6-6s2.686-6 6-6h127.542c3.314 0 6 2.686 6 6s-2.686 6-6 6zm-70.628 49.067c-1.993-2.627-1.479-6.374 1.148-8.367s6.374-1.479 8.367 1.148l4.094 5.383 15.943-20.962c1.993-2.627 5.74-3.142 8.367-1.148 2.628 1.993 3.142 5.74 1.148 8.367l-20.635 27.132c-2.355 3.156-7.133 3.307-9.581.086l-8.852-11.639zm4.758 154.986v-56.625h32.389v56.625zm55.5 0v-85.125h32.389v85.125zm55.5 0v-125.25h32.389v125.25zm162.303-152.036v-223.789c0-14.716-12.04-26.757-26.757-26.757h-42.409v23.676h45.49v235.707c6.401-5.676 14.666-8.838 23.676-8.838z" fill="url(#GradientFill_1)" fill-rule="evenodd"/></svg>