<svg id="Layer_1" enable-background="new 0 0 512 512" height="512" viewBox="0 0 512 512" width="512" xmlns="http://www.w3.org/2000/svg" xmlns:xlink="http://www.w3.org/1999/xlink"><linearGradient id="SVGID_1_" gradientUnits="userSpaceOnUse" x1="-1.982" x2="381.756" y1="468.741" y2="85.003"><stop offset="0" stop-color="#011c49"/><stop offset="1" stop-color="#00b8e0"/></linearGradient><path clip-rule="evenodd" d="m242.25 462.232c0 22.682-18.561 41.245-41.245 41.245h-151.237c-22.686 0-41.245-18.56-41.245-41.245v-412.464c0-22.684 18.559-41.245 41.245-41.245h151.238c22.686 0 41.245 18.56 41.245 41.245v78.243c-14.871 0-26.936 12.066-26.936 26.937s12.066 26.936 26.936 26.936v105.737h-123.061c-41.591 0-75.617 34.027-75.617 75.617v.001c0 41.59 34.027 75.617 75.617 75.617h123.06zm-123.06-160.861c-34.029 0-61.869 27.841-61.869 61.869v.001c0 34.029 27.841 61.869 61.869 61.869h322.417c34.029 0 61.869-27.841 61.869-61.869v-.001c0-34.029-27.841-61.869-61.869-61.869zm.001 28.538c-9.2 0-17.536 3.733-23.567 9.764-6.03 6.03-9.764 14.366-9.764 23.567 0 9.203 3.734 17.536 9.764 23.567l.013-.013c6.044 6.041 14.377 9.777 23.553 9.777 9.165 0 17.483-3.725 23.525-9.748l.042-.042c6.033-6.043 9.764-14.368 9.764-23.541 0-8.971-3.571-17.135-9.376-23.145l-.388-.422c-6.029-6.03-14.363-9.764-23.566-9.764zm13.847 19.484c-3.541-3.542-8.439-5.734-13.847-5.734s-10.306 2.192-13.847 5.734c-3.541 3.541-5.734 8.439-5.734 13.847s2.193 10.306 5.734 13.847v.026c3.526 3.526 8.422 5.708 13.847 5.708 5.427 0 10.322-2.182 13.847-5.708l.026-.026c3.526-3.526 5.708-8.421 5.708-13.847 0-5.275-2.064-10.051-5.421-13.553zm115.067-19.484c-9.17 0-17.508 3.749-23.545 9.786s-9.786 14.374-9.786 23.546c0 9.173 3.749 17.508 9.786 23.545s14.374 9.786 23.545 9.786h193.502c9.173 0 17.508-3.749 23.545-9.786s9.786-14.372 9.786-23.546c0-9.17-3.749-17.508-9.786-23.545s-14.372-9.786-23.545-9.786zm193.503 13.75h-193.503c-5.378 0-10.275 2.206-13.825 5.756s-5.756 8.447-5.756 13.825c0 5.379 2.206 10.276 5.756 13.826s8.447 5.757 13.825 5.757h193.502c5.378 0 10.274-2.206 13.825-5.757 3.55-3.55 5.756-8.447 5.756-13.825 0-5.379-2.206-10.276-5.756-13.826s-8.446-5.756-13.824-5.756zm-186.169-188.711c0-7.284-5.904-13.189-13.188-13.189-7.283 0-13.188 5.905-13.188 13.189s5.906 13.188 13.188 13.188c7.283 0 13.188-5.905 13.188-13.188zm84.283-92.539c-2.684-2.684-2.684-7.036 0-9.72s7.036-2.684 9.72 0c28.238 28.238 42.358 65.25 42.358 102.258s-14.12 74.021-42.358 102.258c-2.684 2.684-7.036 2.684-9.72 0s-2.684-7.036 0-9.72c25.552-25.551 38.329-59.046 38.329-92.538s-12.777-66.986-38.329-92.538zm-63.712 63.713c-2.684-2.684-2.684-7.036 0-9.72s7.036-2.684 9.72 0c10.645 10.645 15.968 24.596 15.968 38.545s-5.323 27.902-15.968 38.545c-2.684 2.684-7.036 2.684-9.72 0s-2.684-7.036 0-9.719c7.958-7.957 11.938-18.393 11.938-28.826s-3.98-20.866-11.938-28.825zm31.856-31.856c16.754 16.754 25.134 38.719 25.134 60.682 0 21.962-8.379 43.927-25.134 60.682-2.684 2.684-2.684 7.036 0 9.72s7.036 2.684 9.72 0c19.441-19.441 29.163-44.924 29.163-70.402s-9.723-50.961-29.163-70.402c-2.684-2.684-7.036-2.684-9.72 0s-2.684 7.036 0 9.72zm-133.201 106.156c-3.23 0-6.162 1.319-8.282 3.439s-3.439 5.052-3.439 8.282v17.452c0 3.23 1.319 6.163 3.439 8.283 2.121 2.121 5.052 3.437 8.282 3.437h26.822c3.229 0 6.162-1.316 8.283-3.437s3.438-5.055 3.438-8.283v-17.452c0-3.23-1.316-6.16-3.438-8.282-2.12-2.12-5.054-3.439-8.283-3.439zm24.793 13.75h-22.764v13.394h22.764zm-87.483-13.75c-3.23 0-6.162 1.319-8.282 3.439s-3.439 5.052-3.439 8.282v17.452c0 3.23 1.318 6.163 3.439 8.283 2.121 2.121 5.052 3.437 8.282 3.437h26.822c3.228 0 6.162-1.316 8.283-3.437s3.437-5.055 3.437-8.283v-17.452c0-3.23-1.316-6.16-3.437-8.282-2.12-2.12-5.054-3.439-8.283-3.439zm24.793 13.75h-22.764v13.394h22.764zm-87.483-13.75c-3.23 0-6.162 1.319-8.282 3.439s-3.439 5.052-3.439 8.282v17.452c0 3.23 1.319 6.163 3.439 8.283 2.121 2.121 5.052 3.437 8.282 3.437h26.822c3.229 0 6.162-1.316 8.283-3.437s3.438-5.055 3.438-8.283v-17.452c0-3.23-1.316-6.16-3.438-8.282-2.12-2.12-5.054-3.439-8.283-3.439zm24.793 13.75h-22.764v13.394h22.764zm100.587-79.672c-3.23 0-6.163 1.318-8.283 3.439-2.121 2.121-3.438 5.054-3.438 8.283v17.451c0 3.228 1.316 6.162 3.438 8.283 2.12 2.12 5.054 3.439 8.283 3.439h26.822c3.23 0 6.163-1.318 8.283-3.439 2.121-2.121 3.438-5.055 3.438-8.283v-17.451c0-3.228-1.316-6.161-3.438-8.283-2.12-2.121-5.054-3.439-8.283-3.439zm24.793 13.75h-22.764v13.395h22.764zm-87.483-13.75c-3.23 0-6.163 1.318-8.283 3.439-2.121 2.121-3.437 5.054-3.437 8.283v17.451c0 3.228 1.316 6.162 3.437 8.283 2.12 2.12 5.054 3.439 8.283 3.439h26.822c3.23 0 6.163-1.318 8.283-3.439 2.121-2.121 3.437-5.055 3.437-8.283v-17.451c0-3.228-1.316-6.161-3.437-8.283-2.12-2.121-5.054-3.439-8.283-3.439zm24.793 13.75h-22.764v13.395h22.764zm-87.483-13.75c-3.23 0-6.163 1.318-8.283 3.439-2.121 2.121-3.438 5.054-3.438 8.283v17.451c0 3.228 1.316 6.162 3.438 8.283 2.12 2.12 5.054 3.439 8.283 3.439h26.822c3.23 0 6.163-1.318 8.283-3.439 2.121-2.121 3.438-5.055 3.438-8.283v-17.451c0-3.228-1.316-6.161-3.438-8.283-2.12-2.121-5.054-3.439-8.283-3.439zm24.793 13.75h-22.764v13.395h22.764zm100.587-79.671c-3.23 0-6.162 1.318-8.282 3.439-2.12 2.12-3.439 5.052-3.439 8.282v17.452c0 3.23 1.319 6.163 3.439 8.283 2.121 2.121 5.052 3.437 8.282 3.437h26.822c3.229 0 6.162-1.316 8.283-3.437s3.438-5.055 3.438-8.283v-17.453c0-3.23-1.316-6.16-3.438-8.282-2.12-2.12-5.054-3.439-8.283-3.439h-26.822zm24.793 13.75h-22.764v13.394h22.764zm-87.483-13.75c-3.23 0-6.162 1.318-8.282 3.439-2.12 2.12-3.439 5.052-3.439 8.282v17.452c0 3.23 1.318 6.163 3.439 8.283 2.121 2.121 5.052 3.437 8.282 3.437h26.822c3.228 0 6.162-1.316 8.283-3.437s3.437-5.055 3.437-8.283v-17.453c0-3.23-1.316-6.16-3.437-8.282-2.12-2.12-5.054-3.439-8.283-3.439h-26.822zm24.793 13.75h-22.764v13.394h22.764zm-87.483-13.75c-3.23 0-6.162 1.318-8.282 3.439-2.12 2.12-3.439 5.052-3.439 8.282v17.452c0 3.23 1.319 6.163 3.439 8.283 2.121 2.121 5.052 3.437 8.282 3.437h26.822c3.229 0 6.162-1.316 8.283-3.437s3.438-5.055 3.438-8.283v-17.453c0-3.23-1.316-6.16-3.438-8.282-2.12-2.12-5.054-3.439-8.283-3.439h-26.822zm24.793 13.75h-22.764v13.394h22.764z" fill="url(#SVGID_1_)" fill-rule="evenodd"/></svg>