<svg id="Layer_1" enable-background="new 0 0 512 512" viewBox="0 0 512 512" xmlns="http://www.w3.org/2000/svg"><g clip-rule="evenodd" fill-rule="evenodd"><path d="m49.07 86.06c0 18.72 15.23 33.95 33.98 33.95 18.7 0 33.94-15.23 33.94-33.95 0-18.73-15.23-33.96-33.94-33.96-18.75 0-33.98 15.23-33.98 33.96z" fill="#1f476d"/><path d="m213.12 149.8h-140.61c-11.35 0-22.09 4.48-30.22 12.62-7.72 7.72-11.92 17.64-11.92 27.91l.08 59.55c0 5.68 4.61 10.3 10.25 10.3 5.72 0 10.33-4.62 10.33-10.3v-61.18c0-3.31 2.65-6 6-6 3.31 0 6 2.69 6 6v61.18c0 8.43-4.74 15.78-11.64 19.57v88.2c0 7.06 5.76 12.82 12.82 12.82 7.07 0 12.82-5.76 12.82-12.82v-95.61c0-3.31 2.7-6 6-6 3.31 0 6 2.69 6 6v95.61c0 7.06 5.76 12.82 12.82 12.82 7.07 0 12.82-5.76 12.82-12.82v-167.63c0-10.83 8.78-19.64 19.64-19.64h78.78c5.68 0 10.29-4.61 10.29-10.29.03-5.67-4.58-10.29-10.26-10.29z" fill="#1f476d"/><path d="m197.52 59.33v78.47h15.6c12.29 0 22.3 10 22.3 22.29s-10.01 22.29-22.3 22.29h-15.6v70.27h245.97v-193.32zm50.19 59.96c0-2.11 1.14-4.05 2.98-5.1l66.81-38.71c1.84-1.08 4.17-1.08 6 0l66.81 38.71c1.84 1.05 2.98 2.99 2.98 5.1.41 27.01-6.04 50.98-19.15 71.26-11.56 17.84-28.59 33.3-50.64 45.96-.94.53-1.96.8-2.98.8-1.06 0-2.08-.27-2.98-.8-22.09-12.66-39.12-28.12-50.68-45.96-13.11-20.28-19.56-44.25-19.15-71.26z" fill="#2579bc"/><g fill="#1f476d"><path d="m180.78 27h279.5v20.33h-279.5z"/><path d="m320.52 87.61-60.85 35.23c.37 44 20.3 77.26 60.85 101.51 40.51-24.25 60.44-57.51 60.81-101.51zm-31.81 63.5c-2.33-2.34-2.33-6.14 0-8.49 2.37-2.34 6.17-2.34 8.49 0l14.99 15 31.61-31.59c2.33-2.34 6.13-2.34 8.49 0 2.33 2.35 2.33 6.15 0 8.49l-35.86 35.83c-1.14 1.17-2.7 1.76-4.25 1.76-1.51 0-3.06-.59-4.21-1.76z"/><path d="m422.7 328.26c-14.17 0-25.69 11.53-25.69 25.71s11.52 25.71 25.69 25.71c14.21 0 25.73-11.53 25.73-25.71s-11.52-25.71-25.73-25.71z"/><path d="m346.21 353.97c0-14.18-11.52-25.71-25.69-25.71-14.21 0-25.73 11.53-25.73 25.71s11.52 25.71 25.73 25.71c14.18 0 25.69-11.53 25.69-25.71z"/><path d="m243.99 353.97c0-14.18-11.52-25.71-25.69-25.71s-25.73 11.53-25.73 25.71 11.56 25.71 25.73 25.71c14.18 0 25.69-11.53 25.69-25.71z"/><path d="m261.76 434.02c-11.19-12.28-26.79-19.25-43.45-19.25-32.51 0-58.93 26.43-58.93 58.92v3.34c0 4.4 3.55 7.97 7.96 7.97h83.92c-1.06-2.44-1.67-5.13-1.67-7.97v-3.34c0-14.68 4.49-28.34 12.17-39.67z"/><path d="m320.52 414.77c-32.51 0-58.93 26.43-58.93 58.92v3.34c0 4.4 3.55 7.97 7.96 7.97h101.89c4.41 0 7.96-3.57 7.96-7.97v-3.34c.01-32.49-26.41-58.92-58.88-58.92z"/><path d="m379.29 434.02c7.68 11.33 12.13 24.99 12.13 39.67v3.34c0 2.84-.57 5.53-1.63 7.97h83.88c4.41 0 7.96-3.57 7.96-7.97v-3.34c0-32.49-26.42-58.92-58.93-58.92-16.66 0-32.22 6.97-43.41 19.25z"/></g></g></svg>