<svg id="Layer_1" height="512" viewBox="0 0 512 512" width="512" xmlns="http://www.w3.org/2000/svg" xmlns:xlink="http://www.w3.org/1999/xlink" data-name="Layer 1"><linearGradient id="GradientFill_1" gradientUnits="userSpaceOnUse" x1="74.93" x2="438.482" y1="436.897" y2="73.692"><stop offset="0" stop-color="#617fc0"/><stop offset="1" stop-color="#20c4f4"/></linearGradient><path d="m256 0c141.385 0 256 114.615 256 256s-114.615 256-256 256-256-114.615-256-256 114.615-256 256-256zm21.754 263.5c21.251-4.89 41.043-16.83 56.7-34.489-15.653-17.659-35.445-29.6-56.7-34.489a40.753 40.753 0 0 1 0 68.978zm-100.2-34.489c15.649 17.659 35.44 29.6 56.7 34.489a40.753 40.753 0 0 1 0-68.978c-21.256 4.891-41.047 16.83-56.7 34.489zm78.446-52.111c-35.815 0-70.168 17.272-94.25 47.384a7.565 7.565 0 0 0 0 9.457c24.082 30.1 58.435 47.375 94.25 47.375s70.167-17.272 94.249-47.375a7.59 7.59 0 0 0 0-9.457c-24.079-30.109-58.437-47.384-94.249-47.384zm-146.362 147.3a9.1 9.1 0 0 0 9.091 9.087h274.54a9.1 9.1 0 0 0 9.091-9.087v-190.381a9.1 9.1 0 0 0 -9.091-9.091h-274.537a9.1 9.1 0 0 0 -9.091 9.091v190.388zm166.707 24.582c-.041-.117-.059-.238-.09-.356h-40.508c-.031.118-.054.239-.094.356l-4.3 13.824h49.309l-4.309-13.824zm-60.9 13.959a19.922 19.922 0 0 0 -17.614 19.764v12.327a7.571 7.571 0 0 0 7.572 7.572h101.197a7.574 7.574 0 0 0 7.572-7.572v-12.32a19.922 19.922 0 0 0 -17.619-19.764l-4.462-14.315h101.178a24.256 24.256 0 0 0 24.23-24.226v-190.388a24.257 24.257 0 0 0 -24.23-24.23h-274.537a24.257 24.257 0 0 0 -24.232 24.23v190.388a24.256 24.256 0 0 0 24.231 24.226h101.174l-4.458 14.315zm32.934-133.737a7.571 7.571 0 0 0 7.572 7.572h.094a7.572 7.572 0 1 0 0-15.144h-.094a7.571 7.571 0 0 0 -7.57 7.579z" fill="url(#GradientFill_1)" fill-rule="evenodd"/></svg>