<?xml version="1.0" encoding="utf-8"?>
<!-- Generator: Adobe Illustrator 26.0.1, SVG Export Plug-In . SVG Version: 6.00 Build 0)  -->
<svg version="1.1" id="Layer_1" xmlns="http://www.w3.org/2000/svg" xmlns:xlink="http://www.w3.org/1999/xlink" x="0px" y="0px"
	 viewBox="0 0 512 512" style="enable-background:new 0 0 512 512;" xml:space="preserve">
<style type="text/css">
	.st0{fill:#FFFFFF;}
</style>
<path class="st0" d="M410.8,134c-6.4,0-12.1,3.2-15.4,8.2H111.7l18.6,20.9h117.8v222.3l20.9-10V163h126.3c3.3,5,9,8.3,15.5,8.3
	c10.3,0,18.6-8.3,18.6-18.6C429.4,142.3,421.1,134,410.8,134z"/>
<path class="st0" d="M473.4,92.2c-6.4,0-12.1,3.3-15.5,8.2H18.7l92.8,104.4h94.8v246.8l104.4-50V220.3c5-3.3,8.3-9,8.3-15.5
	c0-10.3-8.3-18.6-18.6-18.6c-10.3,0-18.6,8.3-18.6,18.6c0,6.4,3.2,12.1,8.2,15.4v168.3l-62.6,30V183.9H120.9l-55.7-62.6H458
	c3.4,4.9,9,8.2,15.4,8.2c10.3,0,18.6-8.3,18.6-18.6C492.1,100.5,483.7,92.2,473.4,92.2z"/>
</svg>
