<svg id="Layer_1" enable-background="new 0 0 512 512" viewBox="0 0 512 512" xmlns="http://www.w3.org/2000/svg"><path clip-rule="evenodd" d="m164.73 48.69h320.03v-21.32h-320.03zm138.23 259.14c0 12.01 9.77 21.78 21.78 21.78s21.78-9.77 21.78-21.78c0-9.93-6.68-18.32-15.78-20.93v-15.17h-12v15.17c-9.1 2.61-15.78 11-15.78 20.93zm12 0c0-5.39 4.39-9.78 9.78-9.78s9.78 4.39 9.78 9.78-4.39 9.78-9.78 9.78-9.78-4.39-9.78-9.78zm-76.91 169.05c0-26.67-21.69-48.37-48.36-48.37s-48.37 21.7-48.37 48.37v2.8c0 3.14 2.56 5.69 5.7 5.69h85.33c3.14 0 5.69-2.55 5.69-5.69v-2.8zm-27.81-100.24c0-11.34-9.22-20.56-20.55-20.56s-20.55 9.22-20.55 20.56c0 11.33 9.22 20.55 20.55 20.55s20.55-9.22 20.55-20.55zm205.6 0c0 11.33 9.22 20.55 20.55 20.55s20.55-9.22 20.55-20.55c0-11.34-9.22-20.56-20.55-20.56s-20.55 9.22-20.55 20.56zm20.55 51.87c-26.67 0-48.36 21.7-48.36 48.37v2.8c0 3.14 2.56 5.69 5.7 5.69h85.34c3.14 0 5.69-2.55 5.69-5.69v-2.8c-.01-26.67-21.69-48.37-48.37-48.37zm-123.35 0c-26.67 0-48.36 21.7-48.36 48.37v2.8c0 3.14 2.55 5.69 5.7 5.69h85.33c3.14 0 5.69-2.55 5.69-5.69v-2.8c0-26.67-21.69-48.37-48.36-48.37zm0-72.43c-11.33 0-20.55 9.22-20.55 20.56 0 11.33 9.22 20.55 20.55 20.55s20.55-9.22 20.55-20.55c0-11.34-9.22-20.56-20.55-20.56zm-34.42-199.51c0-25.44 20.69-46.13 46.12-46.13s46.12 20.69 46.12 46.13c0 25.43-20.69 46.12-46.12 46.12s-46.12-20.69-46.12-46.12zm101.81-48.7c-26.43-3.24-44.41-8.85-55.69-17.42-11.27 8.57-29.25 14.18-55.69 17.42v47.84c0 6.63.86 12.18 2.88 18.56 8.57 27.12 23 42.72 52.81 56.8 29.82-14.08 44.24-29.68 52.81-56.8 2.02-6.38 2.88-11.93 2.88-18.56zm-55.69 14.57c-18.82 0-34.12 15.31-34.12 34.13 0 18.81 15.31 34.12 34.12 34.12 18.82 0 34.12-15.31 34.12-34.12 0-18.82-15.3-34.13-34.12-34.13zm-22.5 30.26c-2.34 2.35-2.34 6.15 0 8.49l11.92 11.92c1.12 1.12 2.65 1.75 4.24 1.75s3.12-.63 4.24-1.75l24.59-24.6c2.34-2.34 2.34-6.14 0-8.48-2.34-2.35-6.14-2.35-8.49 0l-20.35 20.35-7.68-7.68c-2.33-2.34-6.12-2.34-8.47 0zm-221.52-55.65c19.21 0 34.84-15.63 34.84-34.84s-15.63-34.84-34.84-34.84-34.84 15.63-34.84 34.84 15.63 34.84 34.84 34.84zm132.96 30.18h-143.74c-11.65 0-22.65 4.59-30.97 12.94-7.9 7.91-12.24 18.08-12.21 28.61l.06 60.87c0 5.87 4.78 10.65 10.65 10.65 5.88 0 10.65-4.78 10.65-10.65v-62.53c0-3.32 2.69-6 6-6 3.32 0 6 2.68 6 6v62.53c0 8.59-4.81 16.08-11.87 19.92v90.22c0 7.3 5.94 13.24 13.24 13.24s13.24-5.94 13.24-13.24v-97.71c0-3.31 2.69-6 6-6s6 2.69 6 6v97.71.05.03c.04 7.26 5.98 13.16 13.23 13.16 7.3 0 13.24-5.94 13.24-13.24v-171.32c0-10.99 8.95-19.94 19.94-19.94h80.54c5.87 0 10.65-4.78 10.65-10.65 0-5.88-4.78-10.65-10.65-10.65zm245.4-66.53h-268.68v54.54h23.27c12.49 0 22.65 10.16 22.65 22.65s-10.16 22.65-22.65 22.65h-23.27v83.71c0 8.43 6.86 15.29 15.29 15.29h238.09c8.43 0 15.29-6.86 15.29-15.29v-183.55zm-196.66 35.84c-3.05.33-5.37 2.9-5.37 5.97v53.2c0 7.82 1.06 14.66 3.44 22.18 11.36 35.94 32.91 52.08 61.76 65.26.79.36 1.64.54 2.49.54s1.7-.18 2.49-.54c28.85-13.18 50.4-29.32 61.76-65.26 2.37-7.52 3.43-14.36 3.43-22.18v-53.2c0-3.07-2.32-5.64-5.37-5.97-29.86-3.16-48.86-9.14-58.1-18.27-2.34-2.32-6.1-2.32-8.44 0-9.23 9.13-28.23 15.11-58.09 18.27z" fill-rule="evenodd"/></svg>